<?xml version="1.0" encoding="utf-8"?>
<!-- Generator: Adobe Illustrator 19.2.1, SVG Export Plug-In . SVG Version: 6.00 Build 0)  -->
<svg version="1.1" id="Shape_1_1_" xmlns="http://www.w3.org/2000/svg" xmlns:xlink="http://www.w3.org/1999/xlink" x="0px" y="0px"
	 viewBox="0 0 420 512" style="enable-background:new 0 0 420 512;" xml:space="preserve">
<style type="text/css">
	.st0{display:none;}
	.st1{display:inline;}
	.st2{fill:#EDEDF5;}
</style>
<g id="Shape_1" class="st0">
	<g class="st1">
		<path class="st2" d="M202.6,450.4c1.4,2.8,4.2,4.5,7.4,4.5s6-1.8,7.4-4.5l70.2-140.3c0.8-1.5,1-3.3,0.8-4.9l-21.8-139.3l13.7-157
			c0.2-2.3-0.6-4.6-2.1-6.3C276.6,1,274.4,0,272.1,0h-121c-2.3,0-4.5,1-6,2.6s-2.3,3.9-2.2,6.2l11.5,153.7c-0.3,0.7-0.6,1.5-0.7,2.3
			l-21.9,140.3c-0.3,1.7,0,3.4,0.8,4.9L202.6,450.4z M210,289.4c-12.4,0-22.5-10.1-22.5-22.5s10.1-22.5,22.5-22.5
			s22.5,10.1,22.5,22.5S222.4,289.4,210,289.4z M263.1,16.4l-12.4,141.4h-80.2L159.9,16.4H263.1z M168.8,174.3h82.4l20.4,130.8
			l-53.4,106.8V305c17.5-3.8,30.7-19.4,30.7-38c0-21.5-17.5-38.9-38.9-38.9c-21.5,0-38.9,17.5-38.9,38.9c0,18.6,13.2,34.3,30.7,38
			v106.9l-53.4-106.8L168.8,174.3z M372.3,451.7h-43.9c-4.5,0-8.2,3.7-8.2,8.2v13.7H99.8v-13.7c0-4.5-3.7-8.2-8.2-8.2H47.7
			c-4.5,0-8.2,3.7-8.2,8.2v43.9c0,4.5,3.7,8.2,8.2,8.2h43.9c4.5,0,8.2-3.7,8.2-8.2v-13.7h220.4v13.7c0,4.5,3.7,8.2,8.2,8.2h43.9
			c4.5,0,8.2-3.7,8.2-8.2v-43.9C380.5,455.4,376.8,451.7,372.3,451.7z M83.3,495.6H55.9v-27.4h27.4V495.6z M364.1,495.6h-27.4v-27.4
			h27.4V495.6z M210,472.5c115.8,0,210-94.2,210-210c0-4.5-3.7-8.2-8.2-8.2s-8.2,3.7-8.2,8.2C403.6,369.2,316.8,456,210,456
			S16.5,369.3,16.5,262.6c0-4.5-3.7-8.2-8.2-8.2s-8.2,3.7-8.2,8.2C0,378.3,94.2,472.5,210,472.5z"/>
	</g>
</g>
<g id="Forma_1">
	<g>
		<path class="st2" d="M151,233c-1.9-3.2-6-4.2-9.1-2.3l-77.7,46.2c-2,1.2-3.3,3.4-3.3,5.7c0,2.3,1.2,4.5,3.3,5.7l77.7,46.2
			c1.1,0.6,2.2,0.9,3.4,0.9c2.3,0,4.5-1.2,5.7-3.3c1.9-3.2,0.8-7.2-2.3-9.1l-68-40.5l68-40.5C151.8,240.3,152.9,236.2,151,233z
			 M271.3,332.3c1.2,2.1,3.5,3.3,5.7,3.3c1.2,0,2.3-0.3,3.4-0.9l77.7-46.2c2-1.2,3.3-3.4,3.3-5.7c0-2.3-1.2-4.5-3.3-5.7l-77.7-46.2
			c-3.2-1.9-7.3-0.8-9.1,2.3c-1.9,3.2-0.8,7.2,2.3,9.1l68,40.5l-68,40.5C270.4,325,269.4,329.1,271.3,332.3z M236.7,232.7
			l-62.1,92.4c-2.1,3.1-1.2,7.2,1.8,9.2c1.1,0.8,2.4,1.1,3.7,1.1c2.1,0,4.3-1,5.5-2.9l62.1-92.4c2.1-3.1,1.2-7.2-1.8-9.2
			C242.9,228.8,238.7,229.7,236.7,232.7z M413.3,347c3.7,0,6.7-3,6.7-6.7V73.9c0-3.7-3-6.7-6.7-6.7H8.9c-3.7,0-6.7,3-6.7,6.7v364.1
			c0,3.7,3,6.7,6.7,6.7h404.4c3.7,0,6.7-3,6.7-6.7V367c0-3.7-3-6.7-6.7-6.7c-3.7,0-6.7,3-6.7,6.7v64.4H15.6V133.9h391.1v206.5
			C406.7,344.1,409.7,347,413.3,347z M262.2,120.6H15.6v-40h246.6V120.6z M275.6,120.6v-40h131.1v40H275.6z M341.3,93.5
			c-3.9,0-7.1,3.2-7.1,7.1c0,3.9,3.2,7.1,7.1,7.1s7.1-3.2,7.1-7.1S345.3,93.5,341.3,93.5z M304.9,93.5c-3.9,0-7.1,3.2-7.1,7.1
			c0,3.9,3.2,7.1,7.1,7.1s7.1-3.2,7.1-7.1S308.8,93.5,304.9,93.5z M377.8,93.5c-3.9,0-7.1,3.2-7.1,7.1c0,3.9,3.2,7.1,7.1,7.1
			s7.1-3.2,7.1-7.1S381.7,93.5,377.8,93.5z"/>
	</g>
</g>
</svg>
