<?xml version="1.0" encoding="utf-8"?>
<!-- Generator: Adobe Illustrator 19.2.1, SVG Export Plug-In . SVG Version: 6.00 Build 0)  -->
<svg version="1.1" id="Shape_1_1_" xmlns="http://www.w3.org/2000/svg" xmlns:xlink="http://www.w3.org/1999/xlink" x="0px" y="0px"
	 viewBox="0 0 420 512" style="enable-background:new 0 0 420 512;" xml:space="preserve">
<style type="text/css">
	.st0{display:none;}
	.st1{display:inline;}
	.st2{fill:#EDEDF5;}
</style>
<g id="Shape_1" class="st0">
	<g class="st1">
		<path class="st2" d="M202.6,450.4c1.4,2.8,4.2,4.5,7.4,4.5s6-1.8,7.4-4.5l70.2-140.3c0.8-1.5,1-3.3,0.8-4.9l-21.8-139.3l13.7-157
			c0.2-2.3-0.6-4.6-2.1-6.3C276.6,1,274.4,0,272.1,0h-121c-2.3,0-4.5,1-6,2.6s-2.3,3.9-2.2,6.2l11.5,153.7c-0.3,0.7-0.6,1.5-0.7,2.3
			l-21.9,140.3c-0.3,1.7,0,3.4,0.8,4.9L202.6,450.4z M210,289.4c-12.4,0-22.5-10.1-22.5-22.5s10.1-22.5,22.5-22.5
			s22.5,10.1,22.5,22.5S222.4,289.4,210,289.4z M263.1,16.4l-12.4,141.4h-80.2L159.9,16.4H263.1z M168.8,174.3h82.4l20.4,130.8
			l-53.4,106.8V305c17.5-3.8,30.7-19.4,30.7-38c0-21.5-17.5-38.9-38.9-38.9c-21.5,0-38.9,17.5-38.9,38.9c0,18.6,13.2,34.3,30.7,38
			v106.9l-53.4-106.8L168.8,174.3z M372.3,451.7h-43.9c-4.5,0-8.2,3.7-8.2,8.2v13.7H99.8v-13.7c0-4.5-3.7-8.2-8.2-8.2H47.7
			c-4.5,0-8.2,3.7-8.2,8.2v43.9c0,4.5,3.7,8.2,8.2,8.2h43.9c4.5,0,8.2-3.7,8.2-8.2v-13.7h220.4v13.7c0,4.5,3.7,8.2,8.2,8.2h43.9
			c4.5,0,8.2-3.7,8.2-8.2v-43.9C380.5,455.4,376.8,451.7,372.3,451.7z M83.3,495.6H55.9v-27.4h27.4V495.6z M364.1,495.6h-27.4v-27.4
			h27.4V495.6z M210,472.5c115.8,0,210-94.2,210-210c0-4.5-3.7-8.2-8.2-8.2s-8.2,3.7-8.2,8.2C403.6,369.2,316.8,456,210,456
			S16.5,369.3,16.5,262.6c0-4.5-3.7-8.2-8.2-8.2s-8.2,3.7-8.2,8.2C0,378.3,94.2,472.5,210,472.5z"/>
	</g>
</g>
<g id="Forma_1" class="st0">
	<g class="st1">
		<path class="st2" d="M151,233c-1.9-3.2-6-4.2-9.1-2.3l-77.7,46.2c-2,1.2-3.3,3.4-3.3,5.7c0,2.3,1.2,4.5,3.3,5.7l77.7,46.2
			c1.1,0.6,2.2,0.9,3.4,0.9c2.3,0,4.5-1.2,5.7-3.3c1.9-3.2,0.8-7.2-2.3-9.1l-68-40.5l68-40.5C151.8,240.3,152.9,236.2,151,233z
			 M271.3,332.3c1.2,2.1,3.5,3.3,5.7,3.3c1.2,0,2.3-0.3,3.4-0.9l77.7-46.2c2-1.2,3.3-3.4,3.3-5.7c0-2.3-1.2-4.5-3.3-5.7l-77.7-46.2
			c-3.2-1.9-7.3-0.8-9.1,2.3c-1.9,3.2-0.8,7.2,2.3,9.1l68,40.5l-68,40.5C270.4,325,269.4,329.1,271.3,332.3z M236.7,232.7
			l-62.1,92.4c-2.1,3.1-1.2,7.2,1.8,9.2c1.1,0.8,2.4,1.1,3.7,1.1c2.1,0,4.3-1,5.5-2.9l62.1-92.4c2.1-3.1,1.2-7.2-1.8-9.2
			C242.9,228.8,238.7,229.7,236.7,232.7z M413.3,347c3.7,0,6.7-3,6.7-6.7V73.9c0-3.7-3-6.7-6.7-6.7H8.9c-3.7,0-6.7,3-6.7,6.7v364.1
			c0,3.7,3,6.7,6.7,6.7h404.4c3.7,0,6.7-3,6.7-6.7V367c0-3.7-3-6.7-6.7-6.7c-3.7,0-6.7,3-6.7,6.7v64.4H15.6V133.9h391.1v206.5
			C406.7,344.1,409.7,347,413.3,347z M262.2,120.6H15.6v-40h246.6V120.6z M275.6,120.6v-40h131.1v40H275.6z M341.3,93.5
			c-3.9,0-7.1,3.2-7.1,7.1c0,3.9,3.2,7.1,7.1,7.1s7.1-3.2,7.1-7.1S345.3,93.5,341.3,93.5z M304.9,93.5c-3.9,0-7.1,3.2-7.1,7.1
			c0,3.9,3.2,7.1,7.1,7.1s7.1-3.2,7.1-7.1S308.8,93.5,304.9,93.5z M377.8,93.5c-3.9,0-7.1,3.2-7.1,7.1c0,3.9,3.2,7.1,7.1,7.1
			s7.1-3.2,7.1-7.1S381.7,93.5,377.8,93.5z"/>
	</g>
</g>
<g id="Shape_1_2_">
	<g>
		<path class="st2" d="M133.5,110.1c-38.2,0-69.5,31.3-69.5,69.5S95.3,249,133.5,249s69.5-31.3,69.5-69.5
			C203.1,141.3,171.8,110.1,133.5,110.1z M133.5,235.2c-30.6,0-55.6-25-55.6-55.6s25-55.6,55.6-55.6s55.6,25,55.6,55.6
			S164.1,235.2,133.5,235.2z M411.6,332.5H397c-2.8,0-4.9-1.4-6.3-4.2c-0.7-2.1-0.7-4.9,1.4-6.9l10.4-10.4c2.8-2.8,2.8-6.9,0-9.7
			L373.3,272c-2.8-2.8-6.9-2.8-9.7,0l-10.4,10.4c-1.4,1.4-4.2,2.1-6.3,1.4h-0.7c-2.8-1.4-4.2-3.5-4.2-6.3V263c0-4.2-2.8-6.9-6.9-6.9
			h-41.7c-4.2,0-6.9,2.8-6.9,6.9v14.6c0,2.8-1.4,4.9-4.2,6.3c-2.1,0.7-4.9,0.7-6.9-1.4L264.9,272c-2.8-2.8-6.9-2.8-9.7,0L226,301.2
			c-2.8,2.8-2.8,6.9,0,9.7l10.4,10.4c1.4,1.4,2.1,4.2,1.4,6.3v0.7c-1.4,2.8-3.5,4.2-6.3,4.2H217c-4.2,0-6.9,2.8-6.9,6.9v41.7
			c0,4.2,2.8,6.9,6.9,6.9h14.6c2.8,0,4.9,1.4,6.3,4.2c0.7,2.1,0.7,4.9-1.4,6.9L226,409.6c-2.8,2.8-2.8,6.9,0,9.7l29.2,29.2
			c2.8,2.8,6.9,2.8,9.7,0l10.4-10.4c1.4-1.4,4.2-2.1,6.3-1.4h0.7c2.8,1.4,4.2,3.5,4.2,6.3v14.6c0,4.2,2.8,6.9,6.9,6.9h41.7
			c4.2,0,6.9-2.8,6.9-6.9V443c0-2.8,1.4-4.9,4.2-6.3c2.1-0.7,4.9-0.7,6.9,1.4l10.4,10.4c2.8,2.8,6.9,2.8,9.7,0l29.2-29.2
			c2.8-2.8,2.8-6.9,0-9.7l-10.4-10.4c-1.4-1.4-2.1-4.2-1.4-6.3v-0.7c1.4-2.8,3.5-4.2,6.3-4.2h14.6c4.2,0,6.9-2.8,6.9-6.9v-41.7
			C418.5,335.2,415.7,332.5,411.6,332.5z M404.6,374.2h-6.9c-8.3,0-15.3,4.9-18.8,12.5c-3.5,7.6-1.4,16.7,4.2,22.2l4.2,4.9
			l-19.5,19.5l-4.9-4.9c-5.6-5.6-14.6-7.6-22.2-4.2c-7.6,2.8-12.5,10.4-12.5,18.8v7.6H301V443c0-8.3-4.9-15.3-12.5-18.8
			c-7.6-3.5-16.7-1.4-22.2,4.2l-5.6,5.6l-19.5-19.5l4.9-4.9c5.6-5.6,7.6-14.6,4.2-22.2c-2.8-7.6-10.4-12.5-18.8-12.5h-7.6V347h8.3
			c8.3,0,15.3-4.9,18.8-12.5c3.5-7.6,1.4-16.7-4.2-22.2l-5.6-5.6l19.5-19.5l4.9,4.9c5.6,5.6,14.6,7.6,22.2,4.2
			c7.6-2.8,12.5-10.4,12.5-18.8v-7.6h27.8v6.9c0,8.3,4.9,15.3,12.5,18.8s16.7,1.4,22.2-4.2l4.9-4.2l19.5,19.5l-4.9,4.9
			c-5.6,5.6-7.6,14.6-4.2,22.2c2.8,7.6,10.4,12.5,18.8,12.5h7.6V374.2z M314.3,311.6c-27.1,0-48.6,21.5-48.6,48.6
			c0,27.1,21.5,48.6,48.6,48.6c27.1,0,48.6-21.5,48.6-48.6C362.9,333.1,341.4,311.6,314.3,311.6z M314.3,395
			c-19.5,0-34.8-15.3-34.8-34.8c0-19.5,15.3-34.8,34.8-34.8c19.5,0,34.8,15.3,34.8,34.8C349,379.7,333.7,395,314.3,395z M242,258.1
			c2.8-2.8,2.8-6.9,0-9.7l-1.4-1.4c-6.3-6.3-8.3-16.7-4.2-25.7c3.5-9,11.8-14.6,20.8-14.6h1.4c4.2,0,6.9-2.8,6.9-6.9V158
			c0-4.2-2.8-6.9-6.9-6.9h-2.1c-9,0-17.4-5.6-20.8-14.6c-4.2-9-2.1-18.8,4.2-25l1.4-1.4c2.8-2.8,2.8-6.9,0-9.7l-29.2-29.2
			c-2.8-2.8-6.9-2.8-9.7,0l-1.4,1.4c-6.3,6.3-16.7,8.3-25.7,4.2c-9-3.5-14.6-11.8-14.6-20.9v-1.4c0-4.2-2.8-6.9-6.9-6.9H112
			c-4.2,0-6.9,2.8-6.9,6.9v2.1c0,9-5.6,17.4-14.6,20.9c-9,4.2-18.8,2.1-25-4.2l-1.4-1.4c-2.8-2.8-6.9-2.8-9.7,0L25.1,101
			c-2.8,2.8-2.8,6.9,0,9.7l1.4,1.4c6.3,6.3,8.3,16.7,4.2,25.7c-3.5,9-11.8,14.6-20.8,14.6H8.4c-4.2,0-6.9,2.8-6.9,6.9v41.7
			c0,4.2,2.8,6.9,6.9,6.9h1.4c9,0,17.4,5.6,20.8,14.6c4.2,9,2.1,18.8-4.2,25l-1.4,1.4c-2.8,2.8-2.8,6.9,0,9.7L54.3,288
			c2.8,2.8,6.9,2.8,9.7,0l1.4-1.4c6.3-6.3,16.7-8.3,25.7-4.2c9,3.5,14.6,11.8,14.6,20.9v1.4c0,4.2,2.8,6.9,6.9,6.9h41.7
			c4.2,0,6.9-2.8,7.6-6.9v-2.1c0-9,5.6-17.4,14.6-20.9c9-4.2,18.8-2.1,25,4.2l1.4,1.4c2.8,2.8,6.9,2.8,9.7,0L242,258.1z
			 M206.5,273.4c-9.7-6.9-23.6-9-36.1-3.5c-12.5,4.9-20.8,15.3-22.9,27.8H119c-1.4-12.5-10.4-22.9-22.9-29.2
			c-12.5-4.9-25.7-3.5-36.1,4.2l-20.2-20.2c6.9-9.7,9-23.6,3.5-36.1c-4.9-12.5-15.3-20.9-27.8-22.9V165
			c12.5-2.1,23.6-10.4,28.5-22.9s3.5-25.7-4.2-36.1l20.2-19.5c9.7,6.9,23.6,9,36.1,3.5c12.5-4.9,20.8-15.3,22.9-27.8h28.5
			c2.1,12.5,10.4,23.6,22.9,28.5c12.5,4.9,25.7,3.5,36.1-4.2l20.2,20.2c-6.9,9.7-9,23.6-3.5,36.1c4.9,12.5,15.3,20.8,27.8,22.9v28.5
			c-12.5,2.1-23.6,10.4-28.5,22.9c-4.9,12.5-3.5,25.7,4.2,36.1L206.5,273.4z"/>
	</g>
</g>
</svg>
